<svg xmlns="http://www.w3.org/2000/svg" width="900" height="520" viewBox="0 0 900 520">
  <rect width="100%" height="100%" fill="white" />
  <text x="450" y="22" text-anchor="middle" font-size="18" font-family="Arial" fill="#111827">Heat GNN Loss History</text>
  <line x1="80" y1="450.00" x2="870" y2="450.00" stroke="#e5e7eb" /><text x="68" y="454.00" text-anchor="end" font-size="12" fill="#374151">1e-6</text><line x1="80" y1="403.33" x2="870" y2="403.33" stroke="#e5e7eb" /><text x="68" y="407.33" text-anchor="end" font-size="12" fill="#374151">1e-5</text><line x1="80" y1="356.67" x2="870" y2="356.67" stroke="#e5e7eb" /><text x="68" y="360.67" text-anchor="end" font-size="12" fill="#374151">1e-4</text><line x1="80" y1="310.00" x2="870" y2="310.00" stroke="#e5e7eb" /><text x="68" y="314.00" text-anchor="end" font-size="12" fill="#374151">1e-3</text><line x1="80" y1="263.33" x2="870" y2="263.33" stroke="#e5e7eb" /><text x="68" y="267.33" text-anchor="end" font-size="12" fill="#374151">1e-2</text><line x1="80" y1="216.67" x2="870" y2="216.67" stroke="#e5e7eb" /><text x="68" y="220.67" text-anchor="end" font-size="12" fill="#374151">1e-1</text><line x1="80" y1="170.00" x2="870" y2="170.00" stroke="#e5e7eb" /><text x="68" y="174.00" text-anchor="end" font-size="12" fill="#374151">1e0</text><line x1="80" y1="123.33" x2="870" y2="123.33" stroke="#e5e7eb" /><text x="68" y="127.33" text-anchor="end" font-size="12" fill="#374151">1e1</text><line x1="80" y1="76.67" x2="870" y2="76.67" stroke="#e5e7eb" /><text x="68" y="80.67" text-anchor="end" font-size="12" fill="#374151">1e2</text><line x1="80" y1="30.00" x2="870" y2="30.00" stroke="#e5e7eb" /><text x="68" y="34.00" text-anchor="end" font-size="12" fill="#374151">1e3</text>
  <line x1="80" y1="30" x2="80" y2="450" stroke="#111827" />
  <line x1="80" y1="450" x2="870" y2="450" stroke="#111827" />
  <polyline points="80.00,203.38 87.82,327.28 95.72,351.92 103.62,359.84 111.52,344.33 119.42,364.89 127.33,358.18 135.23,373.96 143.13,375.54 151.03,351.80 158.93,380.13 166.83,364.42 174.73,365.45 182.63,367.09 190.53,366.00 198.43,372.79 206.33,390.33 214.23,378.14 222.14,368.63 230.04,377.88 237.94,372.64 245.84,375.32 253.74,376.51 261.64,396.59 269.54,387.69 277.44,380.31 285.34,390.17 293.24,361.74 301.14,369.03 309.04,387.44 316.94,384.36 324.85,362.56 332.75,397.18 340.65,376.33 348.55,390.37 356.45,383.13 364.35,380.44 372.25,388.63 380.15,405.24 388.05,402.55 395.95,405.27 403.85,372.46 411.75,385.45 419.65,380.65 427.56,383.61 435.46,377.61 443.36,402.15 451.26,399.27 459.16,389.62 467.06,378.59 474.96,410.97 482.86,373.73 490.76,397.15 498.66,404.46 506.56,382.78 514.46,391.57 522.37,369.90 530.27,383.08 538.17,389.83 546.07,385.32 553.97,391.05 561.87,403.61 569.77,399.53 577.67,375.30 585.57,411.61 593.47,410.65 601.37,388.73 609.27,381.07 617.17,402.51 625.08,395.36 632.98,391.66 640.88,414.87 648.78,379.52 656.68,388.52 664.58,402.06 672.48,406.90 680.38,376.38 688.28,395.73 696.18,402.46 704.08,397.19 711.98,403.53 719.88,394.31 727.79,415.13 735.69,414.16 743.59,389.12 751.49,383.65 759.39,407.53 767.29,377.37 775.19,408.97 783.09,404.60 790.99,367.35 798.89,392.85 806.79,383.57 814.69,375.01 822.60,418.36 830.50,401.76 838.40,380.61 846.30,390.26 854.20,411.49 862.10,400.24 870.00,403.64" fill="none" stroke="#2563eb" stroke-width="2.5" />
  <polyline points="80.00,46.86 87.82,148.71 95.72,170.87 103.62,178.94 111.52,165.28 119.42,174.60 127.33,180.15 135.23,192.93 143.13,195.24 151.03,194.03 158.93,197.35 166.83,201.80 174.73,169.62 182.63,174.26 190.53,201.21 198.43,197.91 206.33,209.57 214.23,209.49 222.14,181.72 230.04,186.08 237.94,195.34 245.84,199.90 253.74,187.63 261.64,215.73 269.54,210.66 277.44,192.30 285.34,199.52 293.24,207.24 301.14,189.59 309.04,200.72 316.94,200.01 324.85,210.13 332.75,222.15 340.65,208.13 348.55,193.52 356.45,207.95 364.35,201.89 372.25,205.17 380.15,227.32 388.05,222.14 395.95,220.84 403.85,216.37 411.75,223.53 419.65,202.98 427.56,196.79 435.46,162.00 443.36,204.75 451.26,220.78 459.16,218.73 467.06,198.80 474.96,228.57 482.86,198.81 490.76,211.60 498.66,225.45 506.56,215.87 514.46,220.21 522.37,202.28 530.27,188.39 538.17,226.55 546.07,204.66 553.97,182.28 561.87,219.76 569.77,224.03 577.67,198.19 585.57,230.65 593.47,229.80 601.37,226.91 609.27,228.92 617.17,226.09 625.08,229.60 632.98,223.23 640.88,227.68 648.78,168.30 656.68,197.56 664.58,226.73 672.48,218.70 680.38,215.10 688.28,196.54 696.18,221.00 704.08,230.68 711.98,231.54 719.88,222.06 727.79,230.94 735.69,223.09 743.59,236.68 751.49,205.84 759.39,198.31 767.29,237.97 775.19,205.83 783.09,218.97 790.99,226.08 798.89,230.90 806.79,195.95 814.69,211.35 822.60,232.95 830.50,234.74 838.40,222.77 846.30,190.02 854.20,239.20 862.10,209.68 870.00,221.84" fill="none" stroke="#dc2626" stroke-width="2.5" />
  <text x="450" y="496" text-anchor="middle" font-size="14" font-family="Arial" fill="#111827">Epoch</text>
  <text x="18" y="260" transform="rotate(-90 18 260)" text-anchor="middle" font-size="14" font-family="Arial" fill="#111827">Loss, log scale</text>
  <line x1="680" y1="48" x2="720" y2="48" stroke="#2563eb" stroke-width="2.5" />
  <text x="730" y="52" font-size="13" font-family="Arial" fill="#111827">train standardized MSE</text>
  <line x1="680" y1="70" x2="720" y2="70" stroke="#dc2626" stroke-width="2.5" />
  <text x="730" y="74" font-size="13" font-family="Arial" fill="#111827">validation MSE</text>
  <text x="80" y="472" font-size="12" font-family="Arial" fill="#374151">1</text>
  <text x="870" y="472" text-anchor="end" font-size="12" font-family="Arial" fill="#374151">10000</text>
</svg>
